<?xml version="1.0" encoding="UTF-8" standalone="no"?>
<!-- Created with Inkscape (http://www.inkscape.org/) -->

<svg
   width="1920"
   height="1080"
   viewBox="0 0 1920 1080"
   version="1.1"
   id="svg1"
   xml:space="preserve"
   inkscape:version="1.3.2 (091e20e, 2023-11-25, custom)"
   sodipodi:docname="owlogo-name.svg"
   inkscape:export-filename="Documents\owlogo-mini.svg"
   inkscape:export-xdpi="96"
   inkscape:export-ydpi="96"
   xmlns:inkscape="http://www.inkscape.org/namespaces/inkscape"
   xmlns:sodipodi="http://sodipodi.sourceforge.net/DTD/sodipodi-0.dtd"
   xmlns="http://www.w3.org/2000/svg"
   xmlns:svg="http://www.w3.org/2000/svg"><sodipodi:namedview
     id="namedview1"
     pagecolor="#ffffff"
     bordercolor="#000000"
     borderopacity="0.25"
     inkscape:showpageshadow="2"
     inkscape:pageopacity="0.0"
     inkscape:pagecheckerboard="0"
     inkscape:deskcolor="#d1d1d1"
     inkscape:document-units="px"
     inkscape:zoom="0.35355339"
     inkscape:cx="878.22662"
     inkscape:cy="482.24683"
     inkscape:window-width="1360"
     inkscape:window-height="697"
     inkscape:window-x="1358"
     inkscape:window-y="-8"
     inkscape:window-maximized="1"
     inkscape:current-layer="layer2" /><defs
     id="defs1" /><g
     inkscape:groupmode="layer"
     id="layer2"
     inkscape:label="Layer 2"
     style="display:inline"
     transform="translate(-70.710678)"><path
       id="path21"
       style="display:inline;fill:#243519;fill-opacity:1;fill-rule:nonzero;stroke:#343434;stroke-width:10;stroke-linecap:square;stroke-linejoin:bevel;stroke-dasharray:none;stroke-opacity:1"
       d="m 435.67653,259.54581 -81.55469,23.98828 0.80078,24.78516 -51.17187,31.98242 -15.99219,-5.59766 -51.17188,60.76758 10.39453,19.18945 -25.58593,63.96485 -20.78711,2.39843 3.99804,74.35743 16.78907,-0.79883 8.79492,59.16601 -15.99024,9.59571 30.38282,71.95898 28.78515,-14.39062 46.37305,39.17773 -2.39844,19.98828 72.75977,20.78906 11.19336,-11.19336 18.36328,1.72071 -0.0996,1.64062 35.1875,-0.28515 0.46875,15.18359 80.77738,-26.49023 -1.5645,-24.75 50.1621,-33.54297 16.1563,5.09961 49.2734,-62.31446 -10.9805,-18.85937 23.6016,-64.72266 20.7031,-3.03906 -6.2871,-74.19922 -16.7578,1.31641 -10.6152,-58.86719 15.6875,-10.08399 -32.5879,-70.98828 -28.3262,15.27149 -47.5605,-37.73047 1.7812,-20.05274 -73.3652,-18.53515 -10.84377,11.5332 -3.72266,-0.23242 0.11133,-1.20898 -35.18164,-0.79883 z m -30.27149,113.97851 -19.78711,44.66407 h -44.94726 c 18.74988,-16.47908 39.44376,-34.72572 64.73437,-44.66407 z m 100.63674,0.84961 22.8965,5.08789 -8.4805,38.72657 z m -207.49221,141.0586 35.05274,31.94336 -16.11133,47.49218 C 302.6924,568.38989 297.43826,542.61781 298.54957,515.43253 Z m 290.88481,3.67578 c -3.3416,25.51253 -5.2696,51.37823 -29.1172,75.47656 l -8.7637,-48.9043 z m -153.78129,111.0957 41.27149,25.44141 c -26.68922,9.47506 -56.56057,8.34314 -85.3711,0.84765 z" /><path
       style="display:inline;fill:#f7f7f7;fill-opacity:1;fill-rule:nonzero;stroke:#cecbc3;stroke-width:10;stroke-linecap:square;stroke-linejoin:bevel;stroke-dasharray:none;stroke-opacity:1"
       d="m 311.11239,673.42911 48.79037,-133.64318 -98.99495,-91.92388 137.53227,-9.8995 62.57895,-128.33988 42.07285,128.69344 135.0574,10.96015 -111.7229,85.20637 21.5668,140.36069 -111.36934,-71.77133 z"
       id="path31" /><path
       style="display:inline;fill:#f7feee;fill-opacity:1;fill-rule:nonzero;stroke:#343434;stroke-width:10.3737;stroke-linecap:square;stroke-linejoin:bevel;stroke-dasharray:none;stroke-opacity:1"
       d="m 520.58508,417.91979 48.5547,3.5739 c -14.6288,-24.81886 -33.3381,-46.4119 -63.8642,-49.49719 z"
       id="path32"
       sodipodi:nodetypes="cccc" /><text
       xml:space="preserve"
       style="font-style:normal;font-variant:normal;font-weight:normal;font-stretch:normal;font-size:192px;line-height:0.4;font-family:Impact;-inkscape-font-specification:Impact;fill:#243519;fill-opacity:1;stroke-width:5;stroke-linecap:square;stroke-linejoin:bevel"
       x="772.16058"
       y="588.31287"
       id="text1"><tspan
         sodipodi:role="line"
         id="tspan1"
         x="772.16058"
         y="588.31287"
         style="font-style:normal;font-variant:normal;font-weight:bold;font-stretch:normal;font-family:Unispace;-inkscape-font-specification:'Unispace Bold'">OpenWars</tspan></text></g></svg>
