<?xml version="1.0" encoding="UTF-8" standalone="no"?>
<!-- Created with Inkscape (http://www.inkscape.org/) -->

<svg
   width="1920"
   height="1080"
   viewBox="0 0 1920 1080"
   version="1.1"
   id="svg1"
   xml:space="preserve"
   inkscape:version="1.3.2 (091e20e, 2023-11-25, custom)"
   sodipodi:docname="owlogo.svg"
   inkscape:export-filename="Documents\owlogo.svg"
   inkscape:export-xdpi="96"
   inkscape:export-ydpi="96"
   xmlns:inkscape="http://www.inkscape.org/namespaces/inkscape"
   xmlns:sodipodi="http://sodipodi.sourceforge.net/DTD/sodipodi-0.dtd"
   xmlns:xlink="http://www.w3.org/1999/xlink"
   xmlns="http://www.w3.org/2000/svg"
   xmlns:svg="http://www.w3.org/2000/svg"><sodipodi:namedview
     id="namedview1"
     pagecolor="#ffffff"
     bordercolor="#000000"
     borderopacity="0.25"
     inkscape:showpageshadow="2"
     inkscape:pageopacity="0.0"
     inkscape:pagecheckerboard="0"
     inkscape:deskcolor="#d1d1d1"
     inkscape:document-units="px"
     inkscape:zoom="0.125"
     inkscape:cx="-404"
     inkscape:cy="-60"
     inkscape:window-width="1366"
     inkscape:window-height="697"
     inkscape:window-x="-8"
     inkscape:window-y="-8"
     inkscape:window-maximized="1"
     inkscape:current-layer="layer2" /><defs
     id="defs1" /><g
     inkscape:label="Layer 1"
     inkscape:groupmode="layer"
     id="layer1"
     style="display:inline"><path
       style="display:inline;fill:#808080;fill-opacity:1;stroke-width:0.1;stroke-linejoin:bevel"
       d="m 159.43463,641.13074 23.74558,-108.55123 12.43816,-7.9152 -10.17667,-10.74205 36.74911,-115.90106 1510.10599,5.08834 11.3074,-0.56537 -18.6572,115.33569 -16.9611,11.30742 12.4381,15.26502 -21.4841,104.02827 h -107.9858 z"
       id="path3" /><path
       style="display:inline;fill:#ffffff;fill-opacity:1;stroke-width:0.1;stroke-linejoin:bevel"
       d="M 171.30742,636.0424 195.61837,535.97173 H 1701.4841 l -25.7244,103.74559 z"
       id="path1" /><path
       style="display:inline;fill:#ffffff;fill-opacity:1;stroke-width:0.1;stroke-linejoin:bevel"
       d="M 197.87986,508.83392 227.84452,407.63251 H 1726.0777 l -22.6148,104.02827 z"
       id="path2" /></g><g
     inkscape:groupmode="layer"
     id="layer2"
     inkscape:label="Layer 2"
     style="display:inline"><path
       id="path21"
       style="display:inline;fill:#243519;fill-opacity:1;fill-rule:nonzero;stroke:#343434;stroke-width:10;stroke-linecap:square;stroke-linejoin:bevel;stroke-dasharray:none;stroke-opacity:1"
       d="m 958.93555,287.83008 -81.55469,23.98828 0.80078,24.78516 -51.17187,31.98242 -15.99219,-5.59766 -51.17188,60.76758 10.39453,19.18945 -25.58593,63.96485 -20.78711,2.39843 3.99804,74.35743 16.78907,-0.79883 8.79492,59.16601 -15.99024,9.59571 30.38282,71.95898 28.78515,-14.39062 L 843,748.375 l -2.39844,19.98828 72.75977,20.78906 11.19336,-11.19336 18.36328,1.72071 -0.0996,1.64062 35.1875,-0.28515 0.46875,15.18359 80.77738,-26.49023 -1.5645,-24.75 50.1621,-33.54297 16.1563,5.09961 49.2734,-62.31446 -10.9805,-18.85937 23.6016,-64.72266 20.7031,-3.03906 -6.2871,-74.19922 -16.7578,1.31641 -10.6152,-58.86719 15.6875,-10.08399 -32.5879,-70.98828 -28.3262,15.27149 -47.5605,-37.73047 1.7812,-20.05274 -73.3652,-18.53515 -10.84377,11.5332 -3.72266,-0.23242 0.11133,-1.20898 -35.18164,-0.79883 z m -30.27149,113.97851 -19.78711,44.66407 h -44.94726 c 18.74988,-16.47908 39.44376,-34.72572 64.73437,-44.66407 z m 100.63674,0.84961 22.8965,5.08789 -8.4805,38.72657 z M 821.80859,543.7168 856.86133,575.66016 840.75,623.15234 C 825.95142,596.67416 820.69728,570.90208 821.80859,543.7168 Z m 290.88481,3.67578 c -3.3416,25.51253 -5.2696,51.37823 -29.1172,75.47656 l -8.7637,-48.9043 z m -153.78129,111.0957 41.27149,25.44141 c -26.68922,9.47506 -56.56057,8.34314 -85.3711,0.84765 z" /><path
       style="display:inline;fill:#f7f7f7;fill-opacity:1;fill-rule:nonzero;stroke:#cecbc3;stroke-width:10;stroke-linecap:square;stroke-linejoin:bevel;stroke-dasharray:none;stroke-opacity:1"
       d="m 834.37141,701.71338 48.79037,-133.64318 -98.99495,-91.92388 137.53227,-9.8995 62.57895,-128.33988 42.07285,128.69344 135.0574,10.96015 -111.7229,85.20637 21.5668,140.36069 -111.36934,-71.77133 z"
       id="path31" /><path
       style="display:inline;fill:#f7feee;fill-opacity:1;fill-rule:nonzero;stroke:#343434;stroke-width:10.3737;stroke-linecap:square;stroke-linejoin:bevel;stroke-dasharray:none;stroke-opacity:1"
       d="m 1043.8441,446.20406 48.5547,3.5739 c -14.6288,-24.81886 -33.3381,-46.4119 -63.8642,-49.49719 z"
       id="path32"
       sodipodi:nodetypes="cccc" /></g></svg>
